name D:\Dropbox\PhD\Testing MOtoNMS\ElaboratedData\Subject8\30-07-18\dynamicElaborations\right\PassiveA1\PassiveA1.mot
datacolumns 19
datarows 14
range 2.21333000000000 2.23500000000000
endheader
time	    ground_force1_vx	    ground_force1_vy	    ground_force1_vz	    ground_force1_px	    ground_force1_py	    ground_force1_pz	    ground_force2_vx	    ground_force2_vy	    ground_force2_vz	    ground_force2_px	    ground_force2_py	    ground_force2_pz	    ground_torque1_x	    ground_torque1_y	    ground_torque1_z	    ground_torque2_x	    ground_torque2_y	    ground_torque2_z	
2.21333000000000	-0.00000000000000	0.00000000000000	-0.00000000000000	-0.00000000000000	0.00000000000000	-0.00000000000000	-21.93199206000000	505.90811750000000	-32.66701667000000	0.10364864000000	0.00000000000000	0.07922611000000	-0.00000000000000	0.00000000000000	-0.00000000000000	-0.00000000000000	4.58237592000000	0.00000000000000	
2.21500000000000	-0.00000000000000	0.00000000000000	-0.00000000000000	-0.00000000000000	0.00000000000000	-0.00000000000000	-22.07972340000000	505.82621110000002	-32.61698443000000	0.10426546000000	0.00000000000000	0.07925485000000	-0.00000000000000	0.00000000000000	-0.00000000000000	-0.00000000000000	4.57400387000000	0.00000000000000	
2.21667000000000	-0.00000000000000	0.00000000000000	-0.00000000000000	-0.00000000000000	0.00000000000000	-0.00000000000000	-22.22544498000000	505.76477525000001	-32.56845198000000	0.10488553000000	0.00000000000000	0.07928339000000	-0.00000000000000	0.00000000000000	-0.00000000000000	-0.00000000000000	4.56534643000000	0.00000000000000	
2.21833000000000	-0.00000000000000	0.00000000000000	-0.00000000000000	-0.00000000000000	0.00000000000000	-0.00000000000000	-22.36949639000000	505.72407419000001	-32.52134926000000	0.10550913000000	0.00000000000000	0.07931172000000	-0.00000000000000	0.00000000000000	-0.00000000000000	-0.00000000000000	4.55637864000000	0.00000000000000	
2.22000000000000	-0.00000000000000	0.00000000000000	-0.00000000000000	-0.00000000000000	0.00000000000000	-0.00000000000000	-22.51221210000000	505.70431625999998	-32.47560614000000	0.10613652000000	0.00000000000000	0.07933985000000	-0.00000000000000	0.00000000000000	-0.00000000000000	-0.00000000000000	4.54707635000000	0.00000000000000	
2.22167000000000	-0.00000000000000	0.00000000000000	-0.00000000000000	-0.00000000000000	0.00000000000000	-0.00000000000000	-22.65391976000000	505.70565491000002	-32.43115257000000	0.10676793000000	0.00000000000000	0.07936778000000	-0.00000000000000	0.00000000000000	-0.00000000000000	-0.00000000000000	4.53741636000000	0.00000000000000	
2.22333000000000	-0.00000000000000	0.00000000000000	-0.00000000000000	-0.00000000000000	0.00000000000000	-0.00000000000000	-22.79493856000000	505.72818984999998	-32.38791878000000	0.10740358000000	0.00000000000000	0.07939551000000	-0.00000000000000	0.00000000000000	-0.00000000000000	-0.00000000000000	4.52737650000000	0.00000000000000	
2.22500000000000	-0.00000000000000	0.00000000000000	-0.00000000000000	-0.00000000000000	0.00000000000000	-0.00000000000000	-22.93557774000000	505.77196850000001	-32.34583546000000	0.10804366000000	0.00000000000000	0.07942304000000	-0.00000000000000	0.00000000000000	-0.00000000000000	-0.00000000000000	4.51693581000000	0.00000000000000	
2.22667000000000	-0.00000000000000	0.00000000000000	-0.00000000000000	-0.00000000000000	0.00000000000000	-0.00000000000000	-23.07613512000000	505.83698750000002	-32.30483396000000	0.10868833000000	0.00000000000000	0.07945038000000	-0.00000000000000	0.00000000000000	-0.00000000000000	-0.00000000000000	4.50607463000000	0.00000000000000	
2.22833000000000	-0.00000000000000	0.00000000000000	-0.00000000000000	-0.00000000000000	0.00000000000000	-0.00000000000000	-23.21689577000000	505.92319448000001	-32.26484655000000	0.10933771000000	0.00000000000000	0.07947753000000	-0.00000000000000	0.00000000000000	-0.00000000000000	-0.00000000000000	4.49477476000000	0.00000000000000	
2.23000000000000	-0.00000000000000	0.00000000000000	-0.00000000000000	-0.00000000000000	0.00000000000000	-0.00000000000000	-23.35813081000000	506.03048990999997	-32.22580661000000	0.10999190000000	0.00000000000000	0.07950449000000	-0.00000000000000	0.00000000000000	-0.00000000000000	-0.00000000000000	4.48301956000000	0.00000000000000	
2.23167000000000	-0.00000000000000	0.00000000000000	-0.00000000000000	-0.00000000000000	0.00000000000000	-0.00000000000000	-23.50009618000000	506.15872918000002	-32.18764891000000	0.11065097000000	0.00000000000000	0.07953125000000	-0.00000000000000	0.00000000000000	-0.00000000000000	-0.00000000000000	4.47079406000000	0.00000000000000	
2.23333000000000	-0.00000000000000	0.00000000000000	-0.00000000000000	-0.00000000000000	0.00000000000000	-0.00000000000000	-23.64303167000000	506.30772474000003	-32.15030979000000	0.11131496000000	0.00000000000000	0.07955782000000	-0.00000000000000	0.00000000000000	-0.00000000000000	-0.00000000000000	4.45808512000000	0.00000000000000	
2.23500000000000	-0.00000000000000	0.00000000000000	-0.00000000000000	-0.00000000000000	0.00000000000000	-0.00000000000000	-23.78715995000000	506.47724842999997	-32.11372742000000	0.11198384000000	0.00000000000000	0.07958420000000	-0.00000000000000	0.00000000000000	-0.00000000000000	-0.00000000000000	4.44488154000000	0.00000000000000	
